<?xml version="1.0" standalone="no"?>
<!DOCTYPE svg PUBLIC "-//W3C//DTD SVG 20010904//EN"
 "http://www.w3.org/TR/2001/REC-SVG-20010904/DTD/svg10.dtd">
<svg version="1.0" xmlns="http://www.w3.org/2000/svg"
 width="900.732449pt" height="500.180599pt" viewBox="0 0 712.732449 395.180599"
 preserveAspectRatio="xMidYMid meet">
<metadata>
Created by potrace 1.12, written by Peter Selinger 2001-2015
</metadata>
<g transform="translate(0.000000,469.083399) scale(0.100000,-0.100000)"
fill="#000000" stroke="none">
<path d="M3794 4675 c-3 -8 4 -28 16 -45 25 -35 16 -40 -16 -9 -30 28 -105 37
-123 16 -17 -21 -5 -56 22 -67 14 -5 -12 -8 -73 -7 l-95 2 -3 -29 c-4 -31 1
-30 -102 -7 -115 26 -208 -17 -219 -99 l-6 -44 -75 -26 c-75 -26 -656 -310
-760 -372 -126 -74 -494 -231 -685 -291 -44 -14 -109 -37 -145 -50 -94 -36
-418 -114 -570 -137 -30 -5 -93 -15 -140 -24 -47 -8 -139 -20 -205 -26 -66 -6
-161 -15 -212 -21 -50 -5 -162 -9 -247 -9 l-156 0 0 -26 c0 -23 3 -26 27 -21
49 9 276 -12 343 -32 182 -55 335 -121 506 -217 105 -60 314 -210 314 -226 0
-17 -34 -7 -77 22 -24 17 -47 30 -50 30 -3 0 -26 15 -52 33 -139 101 -393 207
-687 287 -95 26 -147 23 -64 -3 58 -19 101 -35 188 -74 29 -13 56 -23 59 -23
20 0 243 -122 338 -184 159 -105 224 -146 230 -146 3 0 60 -28 128 -61 168
-84 239 -109 313 -109 55 0 62 2 68 22 11 44 -94 164 -193 220 -58 34 -163
135 -187 181 -18 33 -5 57 30 57 32 0 213 -75 276 -115 30 -19 100 -61 155
-94 55 -33 123 -73 150 -91 52 -32 242 -121 310 -145 47 -17 91 -19 100 -5 17
27 -95 138 -226 225 -88 58 -168 149 -152 174 23 36 137 4 263 -72 104 -64
367 -195 466 -232 138 -52 170 -62 279 -84 75 -15 103 -25 114 -41 14 -21 55
-27 66 -10 4 6 52 10 118 9 62 0 124 2 140 6 15 4 40 2 57 -5 25 -10 34 -10
54 3 22 15 28 14 77 -4 30 -11 69 -25 87 -30 34 -11 72 -4 72 12 0 15 27 10
65 -13 34 -19 41 -20 86 -9 45 12 52 11 83 -8 42 -26 48 -40 28 -63 -13 -16
-13 -18 3 -24 12 -5 23 -1 32 11 11 17 17 18 46 7 19 -7 66 -12 105 -12 59 0
75 4 89 19 15 19 18 18 64 -33 26 -29 75 -67 108 -85 33 -17 63 -41 66 -52 4
-11 17 -26 30 -35 20 -13 27 -13 66 2 24 9 53 25 64 34 11 10 36 21 55 25 48
10 116 50 161 96 41 41 97 57 166 45 21 -4 70 -10 108 -14 50 -5 84 -15 117
-35 64 -39 152 -40 224 -5 46 23 52 24 93 11 57 -16 107 -4 145 36 21 22 41
31 80 36 99 13 161 51 218 133 29 42 31 43 73 36 86 -12 170 33 215 117 32 61
39 121 19 178 -9 24 -8 43 1 77 14 49 35 57 65 24 17 -19 17 -20 -6 -28 -18
-7 -11 -10 38 -14 33 -3 72 -14 87 -23 15 -10 29 -15 32 -12 7 7 -36 47 -51
47 -25 0 -99 47 -145 92 l-28 28 -7 -48 c-4 -26 -7 -92 -6 -147 2 -113 -13
-166 -57 -207 -38 -35 -81 -50 -138 -46 l-49 3 3 46 c1 25 -2 56 -7 70 -9 21
-10 19 -10 -19 -1 -52 -38 -133 -85 -185 -40 -45 -116 -77 -184 -77 -44 0 -52
-4 -85 -40 -28 -32 -43 -40 -69 -40 -55 0 -64 12 -48 59 22 69 2 226 -27 198
-4 -4 -1 -13 5 -19 7 -7 12 -34 12 -60 0 -140 -119 -239 -239 -197 -29 10 -43
29 -21 29 6 0 33 21 60 46 123 115 120 345 -7 453 -21 18 -50 35 -65 38 -16 3
-28 9 -28 14 0 5 -12 9 -27 8 -23 -1 -25 -2 -8 -7 11 -4 44 -23 73 -42 42 -28
59 -48 82 -96 55 -113 36 -261 -42 -330 -68 -60 -177 -90 -242 -65 l-28 11 18
28 c46 70 63 135 50 188 -6 22 -9 25 -17 13 -5 -7 -9 -28 -9 -46 0 -39 -31
-112 -57 -135 -50 -45 -135 -59 -205 -34 l-38 14 17 -28 c21 -36 14 -52 -43
-93 -66 -48 -128 -63 -178 -42 -27 12 -50 14 -75 9 -52 -10 -70 -6 -126 31
-44 30 -69 57 -120 130 -13 20 -13 20 -37 -1 -38 -35 -64 -44 -127 -44 -55 0
-65 4 -127 46 -60 41 -72 46 -108 41 -23 -3 -48 -8 -56 -11 -13 -5 -37 6 -93
46 -15 11 -20 9 -40 -16 -26 -32 -35 -31 -116 6 -41 18 -77 23 -126 17 -52 -7
-196 2 -190 11 3 6 32 10 63 10 34 1 65 7 76 15 11 8 27 15 35 15 9 0 29 7 45
15 15 8 52 15 81 15 36 0 57 5 66 16 10 12 23 14 54 10 37 -6 44 -3 75 29 39
40 83 52 140 37 34 -8 44 -7 65 10 42 33 87 34 141 4 54 -30 64 -32 64 -9 0
26 47 98 75 117 25 16 28 16 45 1 16 -15 18 -12 22 59 6 87 26 128 86 171 23
16 44 40 48 53 3 12 11 22 18 23 6 1 20 2 30 3 13 1 23 15 33 48 7 26 18 50
23 53 6 3 10 11 10 16 0 6 -5 7 -12 3 -6 -4 -17 1 -25 11 -12 17 -13 17 -13
-9 0 -31 -16 -66 -30 -66 -6 0 -10 38 -10 89 0 142 -23 252 -77 361 -88 181
-150 260 -269 346 -81 58 -233 128 -314 145 -82 16 -243 17 -340 0 -101 -17
-323 -78 -385 -107 -28 -12 -63 -26 -78 -29 -15 -4 -30 -11 -33 -16 -3 -5 -11
-9 -19 -9 -15 0 -300 -129 -418 -190 -43 -22 -84 -40 -92 -40 -8 0 -15 -4 -15
-10 0 -5 -9 -10 -20 -10 -11 0 -20 -4 -20 -10 0 -5 -10 -10 -22 -10 -17 0 -8
8 31 30 30 17 58 30 63 30 5 0 19 9 30 20 12 11 54 35 92 53 39 17 102 49 140
70 82 44 223 112 381 185 177 82 373 132 515 132 201 0 407 -83 584 -234 64
-55 176 -189 176 -210 0 -8 7 -20 17 -27 23 -20 61 -106 69 -157 3 -23 14 -48
24 -55 9 -6 22 -22 28 -34 7 -12 26 -24 43 -28 41 -9 95 -66 110 -115 13 -43
32 -51 68 -28 15 9 25 9 45 0 16 -7 48 -9 84 -6 31 4 76 1 99 -5 51 -14 116
-65 140 -111 10 -19 21 -37 25 -40 3 -3 9 -21 11 -40 2 -19 3 -11 1 18 -3 63
-38 129 -89 168 -19 14 -32 30 -29 35 3 5 26 9 52 9 41 0 51 -5 89 -42 40 -39
44 -41 76 -31 47 14 96 -4 137 -50 24 -28 40 -37 63 -37 44 0 112 -72 121
-130 9 -60 12 -62 56 -40 44 22 72 25 101 10 25 -14 24 -26 -3 -35 -21 -7 -20
-8 10 -12 42 -5 62 11 63 51 1 19 3 24 6 12 13 -49 49 -101 73 -104 20 -3 23
-1 13 9 -21 21 -15 36 22 59 48 30 111 21 156 -21 40 -37 51 -37 37 1 -12 35
0 56 40 71 19 8 23 14 17 32 -17 50 -17 113 -1 126 20 17 20 31 1 31 -23 0
-41 46 -25 65 18 21 40 19 40 -5 0 -22 10 -26 27 -9 17 17 43 3 43 -24 0 -13
11 -37 25 -53 31 -37 34 -90 5 -99 -11 -3 -24 -4 -29 0 -5 3 -12 1 -16 -5 -3
-5 2 -10 11 -10 10 0 30 -11 44 -25 l25 -24 -3 39 c-4 35 -1 40 23 46 80 20
178 -29 226 -113 25 -43 35 -53 58 -53 14 0 37 -7 49 -16 12 -8 22 -11 22 -5
0 15 -25 36 -58 50 -16 7 -34 22 -39 34 -18 40 -65 87 -104 108 -30 15 -55 19
-107 17 -61 -3 -67 -1 -67 17 0 18 11 21 95 32 190 24 302 -30 400 -192 13
-22 28 -41 32 -43 4 -2 23 -14 42 -27 19 -13 37 -21 40 -17 9 8 -25 42 -43 42
-13 0 -13 2 -3 9 8 5 33 6 56 4 49 -6 86 10 86 35 0 29 -53 103 -119 166 -33
32 -61 62 -61 67 0 18 44 8 91 -20 50 -31 69 -46 129 -98 37 -32 89 -44 116
-25 18 13 36 71 30 97 -9 35 -58 82 -95 90 -47 10 -38 22 27 33 46 8 11 10
-179 11 -130 0 -274 6 -320 11 -46 6 -124 15 -174 21 -89 10 -155 22 -228 40
-29 8 -40 17 -52 46 -8 19 -15 43 -15 53 0 10 -6 20 -14 23 -8 3 -17 27 -21
56 -5 39 -13 54 -33 67 -15 9 -36 29 -47 43 -69 87 -219 220 -233 206 -7 -6
44 -51 79 -70 14 -7 41 -33 60 -56 19 -24 46 -57 60 -74 43 -51 65 -88 78
-132 6 -24 16 -43 21 -43 14 0 12 -43 -3 -64 -12 -16 -17 -15 -87 8 -98 33
-143 67 -198 146 -50 71 -53 75 -96 108 -24 19 -37 22 -71 16 -39 -5 -44 -3
-63 24 l-22 30 30 6 c33 6 40 30 18 58 -11 13 -98 42 -98 32 0 -1 5 -14 12
-28 9 -22 13 -24 22 -10 7 9 18 12 29 8 23 -8 22 -34 -2 -34 -11 0 -21 -6 -24
-12 -3 -10 -13 -9 -41 5 l-37 17 27 -47 c15 -27 33 -55 39 -63 7 -8 23 -35 36
-60 28 -52 47 -74 72 -83 19 -7 25 17 7 28 -6 4 -17 22 -25 42 -8 20 -25 44
-37 54 -11 11 -17 19 -12 19 11 0 56 -30 75 -50 38 -41 132 -174 174 -247 26
-46 50 -85 55 -88 10 -6 74 -138 89 -184 14 -43 15 -99 1 -85 -5 5 -16 27 -25
49 l-15 40 3 -45 c1 -36 -2 -45 -16 -48 -9 -2 -17 3 -17 10 0 8 -7 23 -16 34
-14 18 -15 16 -10 -29 5 -38 2 -49 -10 -54 -21 -8 -30 7 -56 96 -20 67 -23 71
-36 55 -12 -17 -13 -12 -7 36 6 47 3 64 -19 110 -14 30 -25 47 -26 38 0 -39
-21 -25 -46 29 -14 32 -35 78 -46 103 -11 24 -31 58 -44 75 -14 16 -56 77 -93
135 -40 62 -101 139 -149 187 -83 83 -93 99 -67 109 25 10 122 -70 166 -136 9
-14 20 -22 23 -19 14 14 -106 144 -185 201 l-24 17 22 16 c13 9 20 22 17 30
-8 19 -30 19 -38 0 -3 -8 -14 -15 -24 -15 -21 0 -83 42 -125 84 -25 25 -67 36
-67 18 0 -17 14 -22 28 -10 12 11 14 8 8 -19 -8 -34 -7 -34 62 -48 17 -4 32
-11 32 -16 0 -5 6 -9 13 -9 7 0 26 -13 41 -29 28 -29 28 -30 10 -55 -23 -31
-41 -32 -74 -6 -29 23 -37 24 -43 8 -2 -7 -2 -3 0 10 3 18 -1 22 -24 22 -15 0
-74 19 -132 41 -108 42 -188 68 -296 94 -122 30 -146 35 -180 35 -19 0 -44 4
-57 9 -34 13 -219 31 -333 32 -109 1 -154 7 -135 19 9 6 8 14 -5 34 -12 18
-13 26 -5 26 17 0 5 44 -26 98 -25 43 -59 56 -70 27z m-34 -70 c17 -9 30 -20
30 -25 0 -6 5 -10 11 -10 16 0 36 -24 31 -38 -2 -6 -13 -12 -25 -12 -20 0 -20
0 -1 14 18 14 17 15 -18 30 -21 9 -43 16 -51 16 -14 0 -37 19 -37 32 0 13 28
9 60 -7z m8 -62 c-10 -2 -26 -2 -35 0 -10 3 -2 5 17 5 19 0 27 -2 18 -5z m-21
-32 c81 -29 169 -75 253 -134 50 -35 200 -185 200 -199 0 -5 -6 -3 -14 4 -101
98 -279 202 -396 232 -128 33 -201 36 -355 18 -177 -21 -189 -21 -193 4 -2 14
7 30 25 44 26 21 35 22 123 17 52 -3 110 -11 128 -18 42 -14 64 0 45 30 -7 10
-9 22 -6 25 16 15 114 3 190 -23z m370 -72 c15 -6 62 -12 103 -13 67 -2 139
-22 160 -45 10 -12 52 -32 57 -28 2 3 -7 14 -21 25 -15 11 -26 23 -26 26 0 10
40 7 63 -6 12 -7 42 -13 67 -14 65 -2 190 -37 237 -67 22 -14 74 -56 115 -94
41 -37 84 -75 96 -83 12 -8 22 -18 22 -23 0 -5 7 -15 16 -24 11 -11 18 -13 26
-5 8 8 -6 27 -52 69 -86 80 -114 103 -121 103 -4 0 -9 9 -12 19 -5 19 -2 18
52 -5 92 -40 128 -71 161 -138 10 -22 24 -32 43 -34 25 -3 27 -1 27 32 0 20 3
36 6 36 17 0 55 -31 137 -113 101 -100 117 -120 181 -217 89 -136 116 -180
116 -190 0 -6 4 -18 10 -28 25 -47 110 -325 110 -364 0 -5 -6 -8 -14 -8 -16 0
-46 42 -46 65 0 8 -5 15 -11 15 -5 0 -9 -10 -7 -22 6 -45 -19 -26 -30 22 -7
28 -24 76 -39 108 -26 52 -28 54 -31 28 -2 -16 6 -63 17 -106 31 -112 9 -155
-23 -47 -9 30 -25 64 -36 77 -11 13 -20 33 -20 46 0 33 -17 38 -24 8 -5 -18
-12 -24 -22 -20 -9 3 -24 6 -35 6 -20 0 -58 67 -60 104 -1 20 -2 18 -14 -21
-3 -9 -16 -7 -47 7 -30 13 -46 16 -55 8 -21 -17 -34 -5 -59 52 -22 52 -23 53
-24 23 0 -37 -8 -40 -51 -18 -36 19 -126 11 -150 -14 -11 -12 -28 -16 -57 -13
l-40 4 -13 64 c-7 35 -17 64 -22 64 -12 0 0 -100 15 -117 7 -9 3 -14 -16 -19
-13 -3 -29 -3 -34 0 -8 5 -22 58 -27 108 -4 36 -28 109 -38 115 -6 4 -7 -4 -3
-23 18 -71 24 -169 11 -183 -22 -22 -42 -6 -49 41 -4 23 -11 61 -16 83 l-7 40
-2 -41 c-1 -56 -11 -61 -42 -23 -19 23 -36 33 -55 34 -25 0 -29 5 -35 38 -6
39 -19 62 -19 34 0 -10 -4 -17 -10 -17 -5 0 -10 10 -10 23 0 21 -19 79 -58
183 -43 115 -258 367 -374 439 -27 17 -48 33 -48 38 0 11 125 8 157 -4z m-577
-444 c0 -7 -9 -34 -20 -60 -26 -61 -27 -105 -1 -105 11 0 21 -6 24 -12 3 -10
9 -10 27 1 21 12 25 11 37 -5 7 -10 13 -42 13 -72 0 -49 -2 -53 -20 -47 -22 7
-24 0 -20 -96 1 -39 -3 -59 -14 -68 -21 -18 -36 -5 -36 29 0 16 -7 35 -15 42
-39 33 -45 41 -45 63 0 23 -16 42 -26 32 -10 -10 -4 -178 7 -198 15 -28 -3
-45 -23 -22 -26 31 -38 97 -38 211 0 82 4 113 13 119 16 10 59 100 77 163 8
25 15 48 17 53 6 11 43 -12 43 -28z m342 -77 c-7 -7 -12 -22 -12 -35 0 -13 -4
-23 -10 -23 -5 0 -10 10 -10 23 0 24 17 47 34 47 6 0 5 -5 -2 -12z m1790 -20
c19 -18 43 -48 53 -65 11 -18 23 -33 27 -33 4 0 8 -5 8 -10 0 -6 17 -37 38
-69 21 -32 41 -66 45 -77 28 -93 27 -90 12 -69 -8 11 -24 31 -35 43 -11 13
-20 29 -20 36 0 7 -10 21 -21 32 -12 10 -36 42 -54 69 -18 28 -42 60 -54 72
-11 12 -21 25 -21 29 0 3 -9 18 -20 34 -18 25 -18 40 0 40 4 0 23 -15 42 -32z
m-2483 -2 c7 -8 16 -42 21 -75 10 -68 15 -81 36 -81 8 0 14 -6 14 -13 0 -7 5
-50 10 -95 10 -77 9 -85 -10 -109 -11 -14 -20 -32 -20 -39 0 -8 -4 -14 -8 -14
-19 0 -32 27 -32 66 0 24 -5 46 -11 49 -7 5 -10 -19 -8 -76 3 -112 -5 -114
-80 -19 l-20 25 -1 -37 c0 -40 -8 -68 -20 -68 -12 0 -50 37 -50 48 0 6 -11 22
-25 36 -22 22 -25 33 -25 100 0 41 5 87 11 103 10 26 12 27 19 8 5 -11 12 -42
17 -68 4 -27 12 -49 18 -50 5 -1 16 22 24 51 14 54 38 70 48 32 3 -12 11 -19
17 -17 7 2 12 43 13 116 2 111 10 141 38 141 7 0 18 -6 24 -14z m778 -28 c-12
-67 -44 -170 -56 -178 -9 -5 -12 -29 -8 -83 3 -56 1 -79 -8 -87 -10 -8 -15 -7
-18 7 -3 10 -10 39 -17 64 l-12 46 -56 -1 -57 -1 -3 56 c-3 51 0 58 29 87 27
26 34 29 55 20 13 -6 24 -18 24 -27 0 -11 3 -10 15 5 8 10 15 31 15 45 0 18 8
30 28 40 15 8 31 20 35 26 4 7 15 13 24 13 12 0 14 -7 10 -32z m-1212 -61 c23
-85 39 -107 75 -107 37 0 42 -17 38 -120 -3 -74 -3 -75 -28 -72 -14 2 -30 8
-36 13 -14 12 -24 1 -24 -27 0 -22 41 -148 62 -191 14 -28 4 -53 -21 -53 -24
0 -64 47 -90 106 -11 25 -26 44 -33 43 -26 -3 -38 1 -57 22 l-19 21 -16 -30
c-22 -42 -20 -55 9 -90 30 -36 32 -58 5 -67 -21 -7 -50 9 -50 27 0 12 -94 150
-114 167 -19 16 -21 50 -5 84 9 19 8 30 -5 49 -13 20 -14 31 -6 52 5 15 10 46
10 70 0 87 52 100 92 23 27 -51 57 -136 58 -159 0 -11 5 -15 15 -12 10 4 15
20 15 48 0 64 15 77 36 32 13 -27 23 -36 38 -34 29 4 32 35 7 68 -29 40 -40
150 -17 184 24 37 41 23 61 -47z m341 32 c10 -17 -13 -36 -27 -22 -12 12 -4
33 11 33 5 0 12 -5 16 -11z m-723 -186 c16 -29 17 -35 3 -67 -8 -19 -12 -44
-9 -55 9 -34 -16 -83 -40 -79 -36 5 -59 60 -65 155 -4 76 -3 88 13 99 16 12
23 11 49 -4 17 -10 39 -32 49 -49z m-151 -56 c5 -108 -1 -114 -76 -64 -46 31
-54 41 -58 74 -7 52 6 73 45 73 18 0 41 7 52 15 27 21 32 8 37 -98z m-223 71
c5 -13 13 -42 18 -65 12 -49 9 -53 -55 -78 -53 -22 -96 -16 -151 21 -48 32
-53 54 -12 54 18 0 39 10 57 29 59 61 128 79 143 39z m-269 -122 c69 -35 60
-49 -39 -60 -75 -7 -88 -6 -126 13 -24 12 -48 28 -55 36 -14 17 4 23 85 28 28
2 59 4 70 5 11 1 40 -9 65 -22z m700 4 c0 -24 -26 -38 -42 -22 -16 16 -2 42
22 42 13 0 20 -7 20 -20z m3606 -93 l33 -41 -24 -28 c-20 -24 -23 -33 -14 -55
11 -30 5 -57 -12 -51 -14 5 -50 143 -43 163 4 9 0 15 -10 15 -9 0 -13 6 -10
14 3 7 -2 30 -10 51 -9 21 -16 39 -16 41 0 7 75 -70 106 -109z m-4538 47 c53
-26 67 -44 33 -44 -21 0 -188 54 -198 64 -3 3 21 6 53 6 45 0 74 -7 112 -26z
m-172 -30 c37 -8 77 -22 88 -30 20 -13 19 -14 -11 -14 -52 0 -45 -14 18 -39
33 -12 106 -52 162 -87 56 -35 105 -64 109 -64 16 0 128 -92 123 -101 -10 -15
-35 -10 -67 12 -39 28 -259 136 -295 145 -15 4 -41 16 -58 26 -16 10 -40 18
-53 18 -13 0 -33 5 -45 11 -11 7 -53 13 -91 13 -44 1 -109 13 -171 31 -55 16
-122 31 -150 34 -66 8 -48 17 71 36 54 9 101 18 103 21 11 11 207 2 267 -12z
m4368 -16 c4 -17 2 -28 -4 -28 -5 0 -10 14 -10 32 0 36 4 35 14 -4z m-4809
-63 c167 -30 216 -55 108 -55 -63 0 -62 -6 5 -43 100 -54 142 -81 139 -91 -8
-23 -53 -16 -121 17 -87 43 -175 77 -201 77 -11 0 -40 8 -65 16 -25 9 -83 20
-130 24 -82 7 -283 51 -264 57 5 2 50 7 99 12 120 13 319 6 430 -14z m1773
-22 c5 -17 -26 -29 -40 -15 -6 6 -7 15 -3 22 9 14 37 9 43 -7z m-1057 -228 c0
-5 -9 -11 -21 -13 -20 -3 -27 8 -13 22 10 9 34 3 34 -9z m2939 -710 c18 -22 3
-35 -40 -35 -21 0 -42 5 -45 10 -11 17 15 40 45 40 15 0 33 -7 40 -15z"/>
<path d="M3597 4496 c-10 -24 15 -38 35 -19 10 9 18 20 18 25 0 14 -47 9 -53
-6z"/>
<path d="M4212 4389 c52 -47 68 -59 77 -59 5 0 15 -13 22 -29 7 -15 25 -37 41
-47 15 -11 28 -25 28 -33 0 -8 6 -11 16 -7 11 4 15 2 11 -7 -3 -7 2 -22 10
-32 12 -17 15 -18 23 -5 14 22 12 30 -5 24 -10 -4 -13 -2 -10 8 3 8 -7 25 -22
40 -15 14 -37 37 -47 52 -10 14 -23 26 -29 26 -6 0 -28 18 -49 40 -22 22 -52
43 -66 46 l-27 6 27 -23z"/>
<path d="M4570 4202 c0 -31 5 -41 25 -52 20 -11 27 -11 40 0 17 14 20 46 5 55
-6 4 -10 -5 -10 -19 0 -29 -7 -32 -32 -12 -21 15 -23 37 -6 54 9 9 8 12 -5 12
-13 0 -17 -9 -17 -38z"/>
<path d="M4460 4103 c0 -5 9 -19 20 -33 11 -14 20 -31 20 -37 0 -7 5 -13 11
-13 6 0 9 3 7 8 -25 52 -43 82 -50 82 -4 0 -8 -3 -8 -7z"/>
<path d="M4900 4023 c0 -6 5 -15 10 -18 6 -3 10 -19 10 -34 0 -27 26 -61 47
-61 5 0 18 -18 28 -40 10 -22 22 -40 26 -40 4 0 10 -8 12 -17 4 -14 5 -13 6 4
0 12 -2 23 -6 25 -13 5 -53 88 -53 109 0 10 -13 25 -30 34 -16 8 -34 23 -39
32 -6 10 -11 13 -11 6z"/>
<path d="M4540 3936 c0 -8 5 -18 10 -21 6 -3 10 3 10 14 0 12 -4 21 -10 21 -5
0 -10 -6 -10 -14z"/>
<path d="M4648 3909 c-17 -17 -24 -39 -14 -39 2 0 11 -3 20 -6 12 -5 16 0 16
16 0 22 1 23 20 5 19 -18 20 -17 20 1 0 22 -18 44 -34 43 -6 0 -19 -9 -28 -20z"/>
<path d="M4440 3893 c0 -21 3 -24 9 -14 5 8 7 20 4 28 -8 21 -13 15 -13 -14z"/>
<path d="M4572 3870 c0 -19 2 -27 5 -17 2 9 2 25 0 35 -3 9 -5 1 -5 -18z"/>
<path d="M5220 3861 c0 -5 7 -14 15 -21 12 -10 15 -10 15 3 0 8 -7 17 -15 21
-8 3 -15 2 -15 -3z"/>
<path d="M4593 3795 c0 -22 2 -30 4 -17 2 12 2 30 0 40 -3 9 -5 -1 -4 -23z"/>
<path d="M4730 3808 c0 -7 5 -20 10 -28 8 -12 10 -9 10 13 0 15 -4 27 -10 27
-5 0 -10 -6 -10 -12z"/>
<path d="M4861 3778 c-1 -16 4 -28 9 -28 12 0 12 8 0 35 -8 18 -9 17 -9 -7z"/>
<path d="M5204 3776 c1 -14 8 -31 14 -39 7 -8 10 -27 6 -44 -5 -24 -1 -34 17
-47 33 -23 53 -1 20 23 -20 16 -21 19 -7 24 15 6 15 9 0 31 -8 14 -13 30 -9
36 7 11 -17 40 -34 40 -5 0 -8 -11 -7 -24z"/>
<path d="M5070 3723 c0 -12 5 -25 10 -28 6 -3 10 -17 10 -31 0 -13 5 -24 10
-24 16 0 11 32 -10 70 -16 29 -19 31 -20 13z"/>
<path d="M4843 3615 c0 -22 2 -30 4 -17 2 12 2 30 0 40 -3 9 -5 -1 -4 -23z"/>
<path d="M5510 3617 c0 -9 5 -17 10 -17 6 0 10 -8 11 -17 0 -11 3 -13 6 -6 2
7 -3 23 -11 35 -13 18 -16 19 -16 5z"/>
<path d="M5365 3603 c4 -10 12 -30 17 -45 5 -16 14 -26 19 -23 4 3 -1 24 -12
45 -21 40 -37 55 -24 23z"/>
<path d="M5470 3572 c0 -12 4 -22 9 -22 5 0 12 -8 14 -17 2 -10 3 -5 0 12 -4
37 -23 58 -23 27z"/>
<path d="M5590 3396 c0 -14 5 -26 10 -26 6 0 10 9 10 19 0 11 -4 23 -10 26 -6
4 -10 -5 -10 -19z"/>
<path d="M5113 4563 c9 -2 17 -9 17 -14 0 -5 10 -8 23 -8 16 1 18 2 5 6 -10 2
-18 9 -18 14 0 5 -10 8 -22 8 -17 -1 -19 -2 -5 -6z"/>
<path d="M5195 4517 c34 -23 132 -77 139 -77 15 0 -25 31 -77 60 -55 30 -99
42 -62 17z"/>
<path d="M5930 4321 c0 -26 47 -120 71 -143 16 -15 29 -33 30 -40 0 -7 5 -3
11 9 9 19 6 28 -18 56 -17 18 -38 54 -48 80 -10 26 -24 47 -32 47 -8 0 -14 -4
-14 -9z"/>
<path d="M5431 4260 c24 -21 45 -38 47 -35 5 5 -71 74 -82 75 -5 0 11 -18 35
-40z"/>
<path d="M5700 4228 c0 -22 13 -33 71 -61 66 -32 88 -35 41 -7 -19 11 -43 30
-55 41 -33 31 -57 42 -57 27z"/>
<path d="M5510 4195 c0 -3 19 -22 42 -43 22 -20 58 -59 78 -87 53 -72 99 -119
108 -110 4 4 1 10 -5 12 -15 5 -18 43 -4 43 5 0 11 -13 15 -30 3 -18 12 -30
21 -30 18 0 19 14 2 32 -7 7 -25 34 -40 60 -31 54 -39 60 -87 68 -32 5 -35 9
-34 37 2 29 -1 32 -28 31 -16 -1 -34 4 -40 10 -12 12 -28 16 -28 7z m200 -160
c21 -25 1 -31 -22 -7 -18 18 -19 22 -6 22 8 0 21 -7 28 -15z"/>
<path d="M5660 4188 c0 -14 50 -68 63 -68 5 0 -3 14 -17 31 -14 17 -26 35 -26
40 0 5 -4 9 -10 9 -5 0 -10 -5 -10 -12z"/>
<path d="M5777 3925 c-5 -12 7 -36 38 -78 25 -33 45 -54 45 -46 0 23 -39 99
-51 99 -5 0 -13 10 -18 22 -7 19 -8 19 -14 3z"/>
<path d="M5896 3843 c-3 -4 14 -20 40 -36 55 -34 68 -28 28 13 -28 29 -53 37
-68 23z"/>
<path d="M6105 3780 c4 -16 15 -46 25 -67 l19 -38 1 33 c0 18 -7 48 -14 67
-19 44 -40 47 -31 5z"/>
<path d="M5610 3690 c0 -6 4 -18 9 -28 5 -9 13 -26 17 -37 6 -18 8 -18 11 -2
5 19 -17 77 -29 77 -5 0 -8 -5 -8 -10z"/>
<path d="M5676 3671 c-5 -7 -3 -18 3 -24 14 -14 20 -6 11 17 -5 15 -9 16 -14
7z"/>
<path d="M4867 3452 c-10 -2 -16 -9 -14 -15 5 -15 59 -15 64 -1 4 13 -23 22
-50 16z"/>
<path d="M6157 3176 c-4 -10 -5 -21 -2 -24 9 -9 17 6 13 25 -3 17 -4 17 -11
-1z"/>
<path d="M5813 3053 c-18 -6 -16 -23 1 -23 17 0 30 16 19 23 -5 2 -14 2 -20 0z"/>
<path d="M4730 2990 c0 -42 9 -50 30 -25 10 12 10 21 2 40 -17 37 -32 30 -32
-15z"/>
<path d="M6486 2985 c-4 -11 3 -19 20 -25 41 -16 47 -12 18 15 -32 29 -30 29
-38 10z"/>
<path d="M5716 2831 c-3 -4 -26 -14 -52 -21 -25 -7 -47 -18 -48 -24 -2 -6 -8
-26 -14 -45 -14 -41 -9 -50 14 -27 9 10 24 14 35 11 15 -5 19 -1 19 18 0 18
10 31 35 46 19 11 35 27 35 36 0 16 -15 20 -24 6z"/>
<path d="M4098 2775 c-16 -36 -16 -37 3 -42 10 -3 19 -12 19 -19 0 -8 7 -14
15 -14 19 0 18 25 -3 73 l-17 38 -17 -36z"/>
<path d="M3420 2635 c0 -8 7 -15 15 -15 8 0 15 7 15 15 0 8 -7 15 -15 15 -8 0
-15 -7 -15 -15z"/>
<path d="M3592 2558 c-17 -17 -15 -55 4 -62 9 -3 33 -6 55 -6 32 0 41 4 48 23
14 37 -4 57 -52 57 -24 0 -48 -5 -55 -12z m68 -18 c0 -5 -13 -10 -30 -10 -16
0 -30 5 -30 10 0 6 14 10 30 10 17 0 30 -4 30 -10z"/>
<path d="M4900 2512 c0 -15 -6 -22 -20 -22 -11 0 -20 -4 -20 -10 0 -5 13 -10
29 -10 35 0 49 26 26 49 -13 14 -15 13 -15 -7z"/>
<path d="M945 1869 c-78 -24 -107 -91 -65 -154 18 -28 20 -47 20 -255 0 -205
8 -333 29 -477 6 -43 4 -58 -16 -94 -26 -49 -23 -82 13 -119 23 -24 30 -25
132 -24 99 0 112 3 172 32 36 17 80 45 99 62 40 36 46 37 66 7 8 -13 34 -31
57 -41 40 -18 43 -18 94 -1 48 16 54 16 75 1 33 -23 104 -21 140 4 26 19 31
20 56 7 52 -27 100 -36 120 -22 30 20 84 27 102 12 35 -28 91 -40 135 -27 38
10 46 9 77 -9 46 -28 119 -28 144 -1 14 16 31 20 76 20 32 0 70 5 84 10 20 8
32 6 48 -5 28 -20 90 -19 129 1 25 13 36 14 50 5 10 -6 52 -11 94 -11 67 0 81
3 111 26 39 30 73 91 73 132 0 47 -46 138 -105 207 -64 75 -69 95 -25 95 74 0
119 56 87 109 -52 89 -196 108 -276 35 -21 -19 -42 -34 -47 -34 -5 0 -31 18
-58 40 -74 61 -113 52 -177 -40 l-43 -60 -19 50 c-24 66 -56 90 -119 90 -27 0
-58 -5 -69 -11 -15 -8 -31 -6 -64 6 -37 15 -47 15 -71 3 -16 -7 -35 -26 -42
-41 l-13 -27 -43 25 c-29 17 -58 25 -90 25 -41 0 -53 -5 -83 -35 -19 -19 -39
-35 -45 -35 -5 0 -24 16 -42 35 -41 43 -95 48 -132 14 -23 -21 -23 -21 -51 -2
-69 48 -136 33 -149 -33 -5 -25 -11 -34 -21 -30 -8 3 -17 6 -19 6 -11 0 -2 53
16 96 40 93 36 158 -17 259 -39 75 -125 139 -221 165 -61 16 -142 20 -177 9z
m219 -74 c58 -27 118 -87 142 -144 8 -18 14 -66 14 -105 0 -60 -5 -83 -30
-135 l-30 -62 44 -44 c34 -33 49 -58 65 -110 25 -81 26 -90 4 -171 -23 -87
-72 -149 -147 -187 -49 -25 -75 -31 -151 -35 -124 -6 -165 18 -116 67 17 17
18 27 9 142 -6 68 -12 257 -15 420 -4 278 -5 298 -24 314 -24 22 -25 51 -1 64
9 6 54 11 99 11 67 0 93 -5 137 -25z m980 -427 c9 -12 16 -34 16 -48 l0 -25
13 24 c30 59 117 85 155 48 15 -15 18 -48 24 -230 5 -117 9 -237 10 -267 3
-59 -6 -69 -57 -56 -38 10 -63 109 -74 296 l-6 105 -19 -40 c-38 -78 -54 -193
-37 -262 14 -55 8 -79 -23 -85 -83 -16 -103 64 -86 352 6 99 16 179 23 191 16
25 42 24 61 -3z m459 -10 c46 -33 51 -44 58 -128 4 -41 12 -122 19 -180 7 -58
13 -130 14 -160 1 -49 -1 -55 -20 -58 -27 -4 -64 40 -64 77 l-1 26 -26 -30
c-60 -69 -116 -83 -159 -40 -25 25 -26 29 -21 123 7 132 17 176 61 268 39 83
70 124 93 124 8 0 28 -10 46 -22z m335 6 c19 -9 32 -23 32 -35 0 -20 -13 -23
-85 -20 -30 2 -45 -3 -59 -18 -26 -29 -14 -66 39 -115 137 -129 173 -271 81
-321 -40 -22 -115 -17 -172 11 -48 23 -54 47 -19 70 23 15 32 16 81 4 30 -7
57 -11 60 -7 11 11 -8 68 -29 90 -39 41 -105 122 -126 158 -56 92 8 199 120
199 25 0 60 -7 77 -16z m-1423 -24 c15 -17 17 -30 11 -87 -16 -173 -19 -276
-7 -269 25 16 47 91 69 245 19 122 28 139 74 128 35 -9 48 -51 42 -134 -3 -38
2 -122 11 -188 24 -183 24 -177 -8 -187 -34 -12 -73 10 -88 49 l-10 26 -32
-31 c-44 -42 -75 -53 -108 -36 -38 19 -49 62 -49 188 1 118 14 289 25 306 10
17 51 11 70 -10z m447 -7 c23 -22 28 -35 28 -76 0 -51 -3 -57 -82 -152 -47
-57 -52 -74 -33 -118 18 -43 35 -55 47 -33 5 9 20 28 32 43 21 24 26 26 50 15
21 -9 26 -18 26 -49 0 -44 -21 -74 -67 -97 -71 -36 -134 -12 -175 67 -19 36
-22 59 -22 162 -1 93 3 131 17 167 36 94 120 127 179 71z m813 -295 c14 -21
14 -23 -2 -29 -25 -9 -33 -2 -33 27 0 30 14 31 35 2z"/>
<path d="M1066 1713 c-2 -10 -6 -88 -8 -173 l-3 -155 42 -3 c37 -3 44 1 67 31
30 39 56 108 56 146 -1 48 -36 107 -83 140 -52 36 -64 38 -71 14z m84 -155 c0
-48 -10 -75 -21 -56 -10 15 -11 63 -2 96 8 33 23 8 23 -40z"/>
<path d="M1113 1262 l-43 -16 0 -63 c0 -59 8 -114 31 -213 18 -74 15 -70 51
-58 77 26 118 94 118 198 0 78 -14 116 -56 149 -31 25 -45 25 -101 3z m75 -62
c30 -33 44 -91 30 -131 -13 -39 -45 -89 -57 -89 -8 0 -34 165 -33 204 1 18 18
35 34 36 4 0 16 -9 26 -20z"/>
<path d="M2507 1095 c-9 -42 -13 -83 -10 -93 8 -20 19 18 31 111 12 82 -2 71
-21 -18z"/>
<path d="M4855 1861 c-141 -25 -216 -158 -165 -293 21 -57 107 -193 162 -256
57 -66 115 -167 122 -210 10 -66 -8 -117 -45 -133 -28 -11 -33 -10 -45 6 -8
10 -14 31 -14 46 0 62 -25 96 -90 125 -71 31 -130 -26 -130 -129 0 -31 4 -65
9 -75 5 -9 15 -30 22 -45 7 -16 26 -42 42 -57 40 -39 139 -90 174 -90 55 0
166 46 206 86 31 30 40 35 48 23 5 -8 9 -17 9 -21 0 -4 18 -17 41 -28 53 -28
139 -25 154 5 25 49 27 50 49 23 32 -39 116 -88 150 -88 21 0 49 14 85 41 l54
41 37 -21 c24 -13 55 -21 87 -21 77 0 85 14 99 176 13 154 26 197 58 192 18
-3 22 -12 28 -78 15 -142 57 -224 138 -265 58 -29 77 -31 128 -9 70 29 122 95
122 154 0 39 -46 110 -72 110 -31 0 -30 23 2 84 45 86 42 138 -10 204 -22 27
-47 53 -56 56 -30 11 -93 6 -129 -11 -35 -17 -35 -16 -63 11 -40 38 -91 44
-142 17 -33 -17 -50 -20 -102 -14 -60 6 -62 5 -88 -25 l-26 -31 -39 34 c-62
54 -84 60 -150 40 -53 -15 -59 -15 -75 0 -10 9 -30 19 -46 24 -23 6 -28 13
-31 51 -5 52 -25 93 -55 114 -26 18 -99 21 -115 5 -13 -13 -15 -9 -37 58 -24
73 -69 131 -119 153 -50 22 -127 31 -182 21z m163 -67 c68 -40 113 -157 82
-215 -24 -45 -81 -4 -95 68 -10 54 -40 83 -86 83 -45 0 -99 -40 -99 -73 1 -33
49 -120 103 -185 125 -151 173 -227 202 -328 18 -63 14 -139 -10 -197 -20 -49
-79 -103 -131 -121 -91 -31 -156 -15 -225 54 l-49 49 0 80 c0 68 3 82 19 90
14 8 27 5 52 -12 29 -19 34 -29 37 -67 3 -61 19 -87 59 -101 45 -15 88 -3 118
33 22 26 25 38 25 113 0 75 -3 90 -31 142 -18 32 -44 72 -59 88 -41 45 -134
173 -167 230 -54 92 -51 184 7 240 43 41 76 53 144 54 47 1 69 -5 104 -25z
m-74 -149 c9 -13 16 -33 16 -43 0 -23 31 -57 72 -78 29 -15 64 -15 101 1 15 6
17 1 17 -46 0 -47 -4 -58 -30 -82 -16 -16 -34 -27 -38 -25 -26 10 -202 248
-202 272 0 34 42 35 64 1z m342 -69 c16 -13 19 -25 17 -99 -2 -94 3 -102 55
-88 36 11 62 -7 62 -42 0 -26 -5 -30 -68 -42 -18 -4 -37 -16 -43 -27 -11 -21
-6 -299 7 -385 5 -36 3 -42 -15 -48 -33 -10 -80 4 -94 28 -8 15 -14 89 -17
217 -4 146 -8 195 -17 196 -7 1 -20 2 -28 3 -18 1 -20 42 -3 59 7 7 20 12 29
12 23 0 29 21 36 118 8 105 30 133 79 98z m730 -194 c32 -26 44 -55 44 -112 0
-44 -3 -52 -25 -62 -19 -9 -29 -8 -50 6 -14 9 -25 21 -25 26 0 6 -6 10 -14 10
-34 0 -86 -172 -86 -285 0 -27 -5 -67 -11 -87 -9 -33 -14 -38 -39 -38 -17 0
-39 9 -51 21 -20 20 -21 28 -14 98 4 42 11 148 14 236 l6 160 29 3 c19 2 36
-4 53 -20 l25 -23 17 22 c19 23 80 63 96 63 6 0 20 -8 31 -18z m-423 -2 c7 -5
27 -22 45 -36 55 -44 65 -81 66 -236 1 -97 -3 -141 -11 -149 -7 -7 -13 -21
-13 -31 0 -25 -80 -105 -114 -114 -35 -9 -89 15 -112 51 -64 98 -71 295 -16
425 31 72 116 121 155 90z m672 -46 c51 -55 29 -149 -57 -242 -34 -37 -38 -47
-33 -75 8 -36 31 -77 44 -77 5 0 18 17 28 38 10 20 25 38 33 40 27 5 51 -22
52 -56 2 -56 -83 -124 -141 -113 -38 7 -90 55 -107 99 -23 58 -28 282 -6 304
6 6 12 20 12 29 0 9 16 31 35 48 48 41 105 43 140 5z"/>
<path d="M5531 1267 c-23 -28 -39 -157 -29 -236 17 -143 61 -161 94 -39 30
115 6 288 -41 288 -7 0 -18 -6 -24 -13z"/>
<path d="M3305 1798 c-43 -44 -79 -123 -110 -241 -18 -69 -20 -293 -4 -400 14
-96 45 -202 77 -260 28 -52 98 -106 141 -108 125 -7 205 37 247 136 l17 40 15
-50 c22 -77 31 -91 85 -134 60 -50 109 -55 154 -17 15 13 46 26 68 29 22 3 55
9 73 13 20 4 32 2 32 -4 0 -21 85 -25 125 -6 31 14 41 15 57 5 11 -7 51 -12
90 -12 112 0 158 40 173 148 5 39 3 61 -11 90 -18 39 -80 128 -122 175 -29 32
-22 48 22 48 48 0 86 33 86 75 0 41 -50 89 -112 106 -62 17 -142 -1 -183 -41
-17 -16 -35 -30 -39 -30 -5 0 -30 18 -57 41 -45 37 -52 40 -88 34 -32 -5 -49
-17 -85 -60 -26 -29 -46 -60 -46 -69 0 -8 -4 -18 -10 -21 -5 -3 -10 -16 -10
-28 0 -17 -2 -19 -9 -8 -9 14 -8 50 4 342 6 125 4 151 -10 178 -22 44 -74 67
-121 55 -38 -10 -55 -33 -72 -94 l-9 -35 -11 25 c-15 36 -57 77 -102 100 -30
15 -59 20 -126 20 l-87 0 -42 -42z m230 -17 c37 -21 89 -99 111 -166 25 -75
31 -419 10 -515 -28 -122 -53 -176 -103 -220 -40 -35 -52 -40 -95 -40 -91 0
-153 55 -180 160 -54 204 -59 475 -12 618 37 113 85 179 121 168 10 -3 25 -1
33 4 23 15 82 10 115 -9z m277 -14 c15 -12 16 -46 16 -353 -1 -342 7 -449 37
-504 38 -68 39 -71 28 -88 -14 -23 -61 -27 -83 -7 -26 24 -58 103 -76 192 -14
64 -15 125 -11 368 3 159 10 312 15 339 12 62 37 80 74 53z m287 -414 c45 -29
47 -35 56 -133 3 -36 10 -101 16 -145 6 -44 11 -116 12 -160 2 -68 0 -80 -15
-83 -24 -5 -68 45 -68 77 0 26 0 26 -33 -11 -58 -65 -111 -76 -153 -31 -24 26
-25 32 -20 113 6 105 14 169 26 195 5 11 21 47 35 79 30 70 70 126 90 126 7 0
32 -12 54 -27z m331 12 c34 -18 40 -50 11 -58 -11 -2 -39 -2 -64 0 -38 5 -47
2 -61 -18 -9 -13 -16 -29 -16 -36 0 -7 30 -46 68 -85 102 -110 133 -180 113
-256 -20 -73 -89 -91 -195 -52 -63 24 -77 47 -46 72 26 21 51 22 105 3 22 -8
41 -15 43 -15 1 0 2 11 2 25 0 37 -26 83 -73 130 -97 97 -125 170 -92 236 33
63 136 90 205 54z m-167 -319 c25 -19 21 -36 -8 -36 -20 0 -25 5 -25 25 0 28
7 30 33 11z"/>
<path d="M3428 1658 c-8 -18 -21 -48 -28 -65 -7 -18 -19 -33 -26 -33 -7 0 -21
-14 -29 -31 -14 -25 -16 -55 -12 -167 9 -231 47 -411 92 -428 46 -18 83 22
113 123 25 85 24 463 -2 545 -20 66 -38 88 -71 88 -16 0 -27 -9 -37 -32z m62
-127 c0 -27 7 -65 16 -86 33 -80 -8 -412 -53 -429 -31 -12 -49 93 -59 336 -6
128 -5 137 14 156 12 12 28 32 37 46 28 42 45 33 45 -23z"/>
<path d="M4027 1203 c-4 -3 -7 -17 -7 -29 0 -13 -4 -26 -10 -29 -5 -3 -10 -21
-10 -39 0 -18 -5 -47 -11 -64 -6 -17 -9 -41 -7 -54 4 -22 5 -22 17 7 7 17 17
57 22 90 5 33 12 75 15 93 6 32 4 38 -9 25z"/>
</g>
</svg>
